<svg width="405" height="155" viewBox="0 0 405 155" fill="none" xmlns="http://www.w3.org/2000/svg">
<path d="M54.048 4.872L53.2357 6.69962L54.048 4.872ZM64.704 13.704L63.0271 14.794V14.794L64.704 13.704ZM64.704 40.584L63.0271 39.494L64.704 40.584ZM54.048 49.416L53.2357 47.5884L54.048 49.416ZM28.128 52.488V50.488H26.128V52.488H28.128ZM28.128 69V71H30.128V69H28.128ZM5.472 69H3.472V71H5.472V69ZM5.472 1.8V-0.200005H3.472V1.8H5.472ZM43.296 33L44.613 34.5051L44.6304 34.4899L44.6475 34.4743L43.296 33ZM43.296 21.384L41.9446 22.8583L41.9616 22.8739L41.979 22.8892L43.296 21.384ZM28.128 19.272V17.272H26.128V19.272H28.128ZM28.128 35.016H26.128V37.016H28.128V35.016ZM37.824 3.8C43.8152 3.8 48.9354 4.78834 53.2357 6.69962L54.8603 3.04437C49.9446 0.859649 44.2488 -0.200005 37.824 -0.200005V3.8ZM53.2357 6.69962C57.5273 8.607 60.763 11.3107 63.0271 14.794L66.3809 12.614C63.653 8.41727 59.7847 5.23299 54.8603 3.04437L53.2357 6.69962ZM63.0271 14.794C65.2879 18.2721 66.448 22.3638 66.448 27.144H70.448C70.448 21.6842 69.1121 16.8159 66.3809 12.614L63.0271 14.794ZM66.448 27.144C66.448 31.9242 65.2879 36.0159 63.0271 39.494L66.3809 41.674C69.1121 37.4721 70.448 32.6038 70.448 27.144H66.448ZM63.0271 39.494C60.763 42.9773 57.5273 45.681 53.2357 47.5884L54.8603 51.2436C59.7847 49.055 63.653 45.8707 66.3809 41.674L63.0271 39.494ZM53.2357 47.5884C48.9354 49.4997 43.8152 50.488 37.824 50.488V54.488C44.2488 54.488 49.9446 53.4283 54.8603 51.2436L53.2357 47.5884ZM37.824 50.488H28.128V54.488H37.824V50.488ZM26.128 52.488V69H30.128V52.488H26.128ZM28.128 67H5.472V71H28.128V67ZM7.472 69V1.8H3.472V69H7.472ZM5.472 3.8H37.824V-0.200005H5.472V3.8ZM36.384 37.016C39.7036 37.016 42.5668 36.2956 44.613 34.5051L41.979 31.4948C40.9532 32.3924 39.2084 33.016 36.384 33.016V37.016ZM44.6475 34.4743C46.6779 32.6131 47.6 30.0801 47.6 27.144H43.6C43.6 29.1999 42.9861 30.5709 41.9446 31.5257L44.6475 34.4743ZM47.6 27.144C47.6 24.2111 46.6782 21.6859 44.613 19.8788L41.979 22.8892C42.9858 23.7701 43.6 25.0849 43.6 27.144H47.6ZM44.6475 19.9097C42.6008 18.0336 39.7233 17.272 36.384 17.272V21.272C39.1887 21.272 40.9192 21.9184 41.9446 22.8583L44.6475 19.9097ZM36.384 17.272H28.128V21.272H36.384V17.272ZM26.128 19.272V35.016H30.128V19.272H26.128ZM28.128 37.016H36.384V33.016H28.128V37.016ZM131.75 51.912H133.75V49.912H131.75V51.912ZM131.75 69V71H133.75V69H131.75ZM75.8783 69H73.8783V71H75.8783V69ZM75.8783 1.8V-0.200005H73.8783V1.8H75.8783ZM130.502 1.8H132.502V-0.200005H130.502V1.8ZM130.502 18.888V20.888H132.502V18.888H130.502ZM98.1503 18.888V16.888H96.1503V18.888H98.1503ZM98.1503 26.76H96.1503V28.76H98.1503V26.76ZM126.566 26.76H128.566V24.76H126.566V26.76ZM126.566 43.08V45.08H128.566V43.08H126.566ZM98.1503 43.08V41.08H96.1503V43.08H98.1503ZM98.1503 51.912H96.1503V53.912H98.1503V51.912ZM129.75 51.912V69H133.75V51.912H129.75ZM131.75 67H75.8783V71H131.75V67ZM77.8783 69V1.8H73.8783V69H77.8783ZM75.8783 3.8H130.502V-0.200005H75.8783V3.8ZM128.502 1.8V18.888H132.502V1.8H128.502ZM130.502 16.888H98.1503V20.888H130.502V16.888ZM96.1503 18.888V26.76H100.15V18.888H96.1503ZM98.1503 28.76H126.566V24.76H98.1503V28.76ZM124.566 26.76V43.08H128.566V26.76H124.566ZM126.566 41.08H98.1503V45.08H126.566V41.08ZM96.1503 43.08V51.912H100.15V43.08H96.1503ZM98.1503 53.912H131.75V49.912H98.1503V53.912ZM169.272 52.104L170.929 50.9838L170.334 50.104H169.272V52.104ZM163.128 52.104V50.104H161.128V52.104H163.128ZM163.128 69V71H165.128V69H163.128ZM140.472 69H138.472V71H140.472V69ZM140.472 1.8V-0.200005H138.472V1.8H140.472ZM189.048 4.872L188.236 6.69962H188.236L189.048 4.872ZM199.704 13.704L198.027 14.794V14.794L199.704 13.704ZM200.184 39.72L198.474 38.682V38.682L200.184 39.72ZM190.776 48.264L189.859 46.4864L187.852 47.5217L189.123 49.3892L190.776 48.264ZM204.888 69V71H208.668L206.541 67.8747L204.888 69ZM180.696 69L179.039 70.1202L179.634 71H180.696V69ZM178.296 21.384L176.945 22.8583L176.962 22.8739L176.979 22.8892L178.296 21.384ZM163.128 19.272V17.272H161.128V19.272H163.128ZM163.128 35.016H161.128V37.016H163.128V35.016ZM178.296 33L179.613 34.5051L179.63 34.4899L179.647 34.4743L178.296 33ZM169.272 50.104H163.128V54.104H169.272V50.104ZM161.128 52.104V69H165.128V52.104H161.128ZM163.128 67H140.472V71H163.128V67ZM142.472 69V1.8H138.472V69H142.472ZM140.472 3.8H172.824V-0.200005H140.472V3.8ZM172.824 3.8C178.815 3.8 183.935 4.78834 188.236 6.69962L189.86 3.04437C184.945 0.859649 179.249 -0.200005 172.824 -0.200005V3.8ZM188.236 6.69962C192.527 8.607 195.763 11.3107 198.027 14.794L201.381 12.614C198.653 8.41727 194.785 5.23299 189.86 3.04437L188.236 6.69962ZM198.027 14.794C200.288 18.2721 201.448 22.3638 201.448 27.144H205.448C205.448 21.6842 204.112 16.8159 201.381 12.614L198.027 14.794ZM201.448 27.144C201.448 31.632 200.434 35.4541 198.474 38.682L201.894 40.758C204.286 36.8179 205.448 32.256 205.448 27.144H201.448ZM198.474 38.682C196.508 41.9204 193.662 44.5259 189.859 46.4864L191.693 50.0416C196.082 47.7781 199.508 44.6876 201.894 40.758L198.474 38.682ZM189.123 49.3892L203.235 70.1253L206.541 67.8747L192.429 47.1388L189.123 49.3892ZM204.888 67H180.696V71H204.888V67ZM182.353 67.8798L170.929 50.9838L167.615 53.2242L179.039 70.1202L182.353 67.8798ZM182.6 27.144C182.6 24.2111 181.678 21.6859 179.613 19.8788L176.979 22.8892C177.986 23.7701 178.6 25.0849 178.6 27.144H182.6ZM179.647 19.9097C177.601 18.0336 174.723 17.272 171.384 17.272V21.272C174.189 21.272 175.919 21.9184 176.945 22.8583L179.647 19.9097ZM171.384 17.272H163.128V21.272H171.384V17.272ZM161.128 19.272V35.016H165.128V19.272H161.128ZM163.128 37.016H171.384V33.016H163.128V37.016ZM171.384 37.016C174.704 37.016 177.567 36.2956 179.613 34.5051L176.979 31.4948C175.953 32.3924 174.208 33.016 171.384 33.016V37.016ZM179.647 34.4743C181.678 32.6131 182.6 30.0801 182.6 27.144H178.6C178.6 29.1999 177.986 30.5709 176.945 31.5257L179.647 34.4743ZM227.747 66.024L228.673 64.2512L227.747 66.024ZM214.211 53.544L212.502 54.582L212.507 54.591L214.211 53.544ZM214.211 17.352L215.915 18.3991L215.921 18.39L214.211 17.352ZM266.723 4.776L267.649 3.00318L266.723 4.776ZM280.259 17.352L278.55 18.39L278.555 18.399L280.259 17.352ZM280.259 53.544L281.963 54.5911L281.969 54.582L280.259 53.544ZM266.723 66.024L267.649 67.7968L266.723 66.024ZM254.819 50.184L255.848 51.899L255.855 51.8948L255.862 51.8906L254.819 50.184ZM260.291 44.328L262.052 45.2762L262.057 45.267L262.062 45.2577L260.291 44.328ZM260.291 26.568L258.52 27.4977L258.525 27.507L258.53 27.5162L260.291 26.568ZM254.819 20.712L253.755 22.4053L253.783 22.4229L253.812 22.4396L254.819 20.712ZM239.555 20.712L240.584 22.427L240.591 22.4228L240.598 22.4186L239.555 20.712ZM234.179 26.568L235.94 27.5162L235.945 27.507L235.95 27.4977L234.179 26.568ZM234.179 44.328L232.408 45.2577L232.413 45.267L232.418 45.2762L234.179 44.328ZM239.555 50.184L238.491 51.8773L238.519 51.8949L238.548 51.9116L239.555 50.184ZM247.235 68.536C240.289 68.536 234.116 67.0937 228.673 64.2512L226.821 67.7968C232.898 70.9703 239.718 72.536 247.235 72.536V68.536ZM228.673 64.2512C223.219 61.403 218.982 57.4879 215.915 52.4969L212.507 54.591C215.969 60.2241 220.755 64.629 226.821 67.7968L228.673 64.2512ZM215.921 52.506C212.86 47.4645 211.315 41.78 211.315 35.4H207.315C207.315 42.46 209.035 48.8715 212.502 54.582L215.921 52.506ZM211.315 35.4C211.315 29.0198 212.86 23.3716 215.915 18.399L212.507 16.3049C209.035 21.9564 207.315 28.3402 207.315 35.4H211.315ZM215.921 18.39C218.989 13.3365 223.225 9.39382 228.673 6.54882L226.821 3.00318C220.749 6.17418 215.962 10.6155 212.502 16.314L215.921 18.39ZM228.673 6.54882C234.116 3.70628 240.289 2.264 247.235 2.264V-1.736C239.718 -1.736 232.898 -0.170285 226.821 3.00318L228.673 6.54882ZM247.235 2.264C254.182 2.264 260.354 3.70628 265.797 6.54882L267.649 3.00318C261.572 -0.170285 254.753 -1.736 247.235 -1.736V2.264ZM265.797 6.54882C271.245 9.39382 275.482 13.3365 278.55 18.39L281.969 16.314C278.509 10.6155 273.721 6.17418 267.649 3.00318L265.797 6.54882ZM278.555 18.399C281.611 23.3716 283.155 29.0198 283.155 35.4H287.155C287.155 28.3402 285.436 21.9564 281.963 16.3049L278.555 18.399ZM283.155 35.4C283.155 41.78 281.611 47.4645 278.55 52.506L281.969 54.582C285.436 48.8715 287.155 42.46 287.155 35.4H283.155ZM278.555 52.4969C275.489 57.4879 271.251 61.403 265.797 64.2512L267.649 67.7968C273.715 64.629 278.502 60.2241 281.963 54.591L278.555 52.4969ZM265.797 64.2512C260.354 67.0937 254.182 68.536 247.235 68.536V72.536C254.753 72.536 261.572 70.9703 267.649 67.7968L265.797 64.2512ZM247.235 54.2C250.384 54.2 253.273 53.444 255.848 51.899L253.79 48.469C251.885 49.612 249.718 50.2 247.235 50.2V54.2ZM255.862 51.8906C258.484 50.2885 260.549 48.0679 262.052 45.2762L258.53 43.3798C257.346 45.5801 255.763 47.2635 253.776 48.4774L255.862 51.8906ZM262.062 45.2577C263.581 42.3651 264.307 39.0598 264.307 35.4H260.307C260.307 38.5242 259.69 41.1709 258.52 43.3983L262.062 45.2577ZM264.307 35.4C264.307 31.7418 263.581 28.4594 262.052 25.6198L258.53 27.5162C259.689 29.6686 260.307 32.2742 260.307 35.4H264.307ZM262.062 25.6383C260.559 22.775 258.482 20.5334 255.827 18.9844L253.812 22.4396C255.764 23.5786 257.336 25.241 258.52 27.4977L262.062 25.6383ZM255.884 19.0187C253.304 17.3973 250.403 16.6 247.235 16.6V20.6C249.7 20.6 251.855 21.2107 253.755 22.4053L255.884 19.0187ZM247.235 16.6C244.068 16.6 241.144 17.3971 238.512 19.0054L240.598 22.4186C242.574 21.2109 244.771 20.6 247.235 20.6V16.6ZM238.526 18.997C235.939 20.5495 233.904 22.7892 232.408 25.6383L235.95 27.4977C237.142 25.2268 238.692 23.5625 240.584 22.427L238.526 18.997ZM232.418 25.6198C230.889 28.4594 230.163 31.7418 230.163 35.4H234.163C234.163 32.2742 234.781 29.6686 235.94 27.5162L232.418 25.6198ZM230.163 35.4C230.163 39.0598 230.89 42.365 232.408 45.2577L235.95 43.3983C234.781 41.1709 234.163 38.5242 234.163 35.4H230.163ZM232.418 45.2762C233.914 48.0541 235.937 50.2722 238.491 51.8773L240.62 48.4907C238.693 47.2798 237.132 45.5939 235.94 43.3798L232.418 45.2762ZM238.548 51.9116C241.175 53.444 244.086 54.2 247.235 54.2V50.2C244.753 50.2 242.544 49.612 240.563 48.4564L238.548 51.9116ZM20.064 105.368H22.064V103.368H20.064V105.368ZM0.384 105.368H-1.616V107.368H0.384V105.368ZM0.384 87.8V85.8H-1.616V87.8H0.384ZM62.4 87.8H64.4V85.8H62.4V87.8ZM62.4 105.368V107.368H64.4V105.368H62.4ZM42.72 105.368V103.368H40.72V105.368H42.72ZM42.72 155V157H44.72V155H42.72ZM20.064 155H18.064V157H20.064V155ZM20.064 103.368H0.384V107.368H20.064V103.368ZM2.384 105.368V87.8H-1.616V105.368H2.384ZM0.384 89.8H62.4V85.8H0.384V89.8ZM60.4 87.8V105.368H64.4V87.8H60.4ZM62.4 103.368H42.72V107.368H62.4V103.368ZM40.72 105.368V155H44.72V105.368H40.72ZM42.72 153H20.064V157H42.72V153ZM22.064 155V105.368H18.064V155H22.064ZM97.0845 138.104L98.7413 136.984L98.1465 136.104H97.0845V138.104ZM90.9405 138.104V136.104H88.9405V138.104H90.9405ZM90.9405 155V157H92.9405V155H90.9405ZM68.2845 155H66.2845V157H68.2845V155ZM68.2845 87.8V85.8H66.2845V87.8H68.2845ZM116.861 90.872L116.048 92.6996L116.861 90.872ZM127.517 99.704L125.84 100.794L127.517 99.704ZM127.997 125.72L126.287 124.682L127.997 125.72ZM118.589 134.264L117.672 132.486L115.664 133.522L116.935 135.389L118.589 134.264ZM132.701 155V157H136.481L134.354 153.875L132.701 155ZM108.508 155L106.852 156.12L107.447 157H108.508V155ZM106.109 107.384L104.757 108.858L104.774 108.874L104.791 108.889L106.109 107.384ZM90.9405 105.272V103.272H88.9405V105.272H90.9405ZM90.9405 121.016H88.9405V123.016H90.9405V121.016ZM106.109 119L107.426 120.505L107.443 120.49L107.46 120.474L106.109 119ZM97.0845 136.104H90.9405V140.104H97.0845V136.104ZM88.9405 138.104V155H92.9405V138.104H88.9405ZM90.9405 153H68.2845V157H90.9405V153ZM70.2845 155V87.8H66.2845V155H70.2845ZM68.2845 89.8H100.637V85.8H68.2845V89.8ZM100.637 89.8C106.628 89.8 111.748 90.7883 116.048 92.6996L117.673 89.0444C112.757 86.8596 107.061 85.8 100.637 85.8V89.8ZM116.048 92.6996C120.34 94.607 123.576 97.3107 125.84 100.794L129.193 98.614C126.466 94.4173 122.597 91.233 117.673 89.0444L116.048 92.6996ZM125.84 100.794C128.1 104.272 129.26 108.364 129.26 113.144H133.26C133.26 107.684 131.925 102.816 129.193 98.614L125.84 100.794ZM129.26 113.144C129.26 117.632 128.247 121.454 126.287 124.682L129.706 126.758C132.098 122.818 133.26 118.256 133.26 113.144H129.26ZM126.287 124.682C124.321 127.92 121.474 130.526 117.672 132.486L119.505 136.042C123.895 133.778 127.32 130.688 129.706 126.758L126.287 124.682ZM116.935 135.389L131.047 156.125L134.354 153.875L120.242 133.139L116.935 135.389ZM132.701 153H108.508V157H132.701V153ZM110.165 153.88L98.7413 136.984L95.4277 139.224L106.852 156.12L110.165 153.88ZM110.413 113.144C110.413 110.211 109.491 107.686 107.426 105.879L104.791 108.889C105.798 109.77 106.413 111.085 106.413 113.144H110.413ZM107.46 105.91C105.413 104.034 102.536 103.272 99.1965 103.272V107.272C102.001 107.272 103.732 107.918 104.757 108.858L107.46 105.91ZM99.1965 103.272H90.9405V107.272H99.1965V103.272ZM88.9405 105.272V121.016H92.9405V105.272H88.9405ZM90.9405 123.016H99.1965V119.016H90.9405V123.016ZM99.1965 123.016C102.516 123.016 105.379 122.296 107.426 120.505L104.791 117.495C103.766 118.392 102.021 119.016 99.1965 119.016V123.016ZM107.46 120.474C109.49 118.613 110.413 116.08 110.413 113.144H106.413C106.413 115.2 105.799 116.571 104.757 117.526L107.46 120.474ZM185.608 143.288L187.474 142.569L186.981 141.288H185.608V143.288ZM160.072 143.288V141.288H158.699L158.205 142.569L160.072 143.288ZM155.56 155V157H156.933L157.426 155.719L155.56 155ZM132.52 155L130.687 154.199L129.463 157H132.52V155ZM161.896 87.8V85.8H160.587L160.063 86.9989L161.896 87.8ZM184.168 87.8L186 86.9989L185.476 85.8H184.168V87.8ZM213.544 155V157H216.601L215.376 154.199L213.544 155ZM190.12 155L188.253 155.719L188.747 157H190.12V155ZM179.368 126.968V128.968H182.285L181.233 126.247L179.368 126.968ZM172.84 110.072L174.705 109.351L172.84 104.523L170.974 109.351L172.84 110.072ZM166.312 126.968L164.446 126.247L163.395 128.968H166.312V126.968ZM185.608 141.288H160.072V145.288H185.608V141.288ZM158.205 142.569L153.693 154.281L157.426 155.719L161.938 144.007L158.205 142.569ZM155.56 153H132.52V157H155.56V153ZM134.352 155.801L163.728 88.6011L160.063 86.9989L130.687 154.199L134.352 155.801ZM161.896 89.8H184.168V85.8H161.896V89.8ZM182.335 88.6011L211.711 155.801L215.376 154.199L186 86.9989L182.335 88.6011ZM213.544 153H190.12V157H213.544V153ZM191.986 154.281L187.474 142.569L183.741 144.007L188.253 155.719L191.986 154.281ZM181.233 126.247L174.705 109.351L170.974 110.793L177.502 127.689L181.233 126.247ZM170.974 109.351L164.446 126.247L168.177 127.689L174.705 110.793L170.974 109.351ZM166.312 128.968H179.368V124.968H166.312V128.968ZM285.124 87.8L286.966 88.5789L288.141 85.8H285.124V87.8ZM256.708 155V157H258.034L258.55 155.779L256.708 155ZM234.436 155L232.594 155.779L233.11 157H234.436V155ZM206.02 87.8V85.8H203.003L204.178 88.5789L206.02 87.8ZM230.404 87.8L232.255 87.044L231.747 85.8H230.404V87.8ZM246.436 127.064L244.584 127.82L246.414 132.301L248.281 127.835L246.436 127.064ZM262.852 87.8V85.8H261.52L261.007 87.0285L262.852 87.8ZM283.282 87.0211L254.866 154.221L258.55 155.779L286.966 88.5789L283.282 87.0211ZM256.708 153H234.436V157H256.708V153ZM236.278 154.221L207.862 87.0211L204.178 88.5789L232.594 155.779L236.278 154.221ZM206.02 89.8H230.404V85.8H206.02V89.8ZM228.552 88.556L244.584 127.82L248.287 126.308L232.255 87.044L228.552 88.556ZM248.281 127.835L264.697 88.5715L261.007 87.0285L244.591 126.293L248.281 127.835ZM262.852 89.8H285.124V85.8H262.852V89.8ZM343.25 137.912H345.25V135.912H343.25V137.912ZM343.25 155V157H345.25V155H343.25ZM287.378 155H285.378V157H287.378V155ZM287.378 87.8V85.8H285.378V87.8H287.378ZM342.002 87.8H344.002V85.8H342.002V87.8ZM342.002 104.888V106.888H344.002V104.888H342.002ZM309.65 104.888V102.888H307.65V104.888H309.65ZM309.65 112.76H307.65V114.76H309.65V112.76ZM338.066 112.76H340.066V110.76H338.066V112.76ZM338.066 129.08V131.08H340.066V129.08H338.066ZM309.65 129.08V127.08H307.65V129.08H309.65ZM309.65 137.912H307.65V139.912H309.65V137.912ZM341.25 137.912V155H345.25V137.912H341.25ZM343.25 153H287.378V157H343.25V153ZM289.378 155V87.8H285.378V155H289.378ZM287.378 89.8H342.002V85.8H287.378V89.8ZM340.002 87.8V104.888H344.002V87.8H340.002ZM342.002 102.888H309.65V106.888H342.002V102.888ZM307.65 104.888V112.76H311.65V104.888H307.65ZM309.65 114.76H338.066V110.76H309.65V114.76ZM336.066 112.76V129.08H340.066V112.76H336.066ZM338.066 127.08H309.65V131.08H338.066V127.08ZM307.65 129.08V137.912H311.65V129.08H307.65ZM309.65 139.912H343.25V135.912H309.65V139.912ZM351.972 87.8V85.8H349.972V87.8H351.972ZM374.628 87.8H376.628V85.8H374.628V87.8ZM374.628 137.432H372.628V139.432H374.628V137.432ZM404.964 137.432H406.964V135.432H404.964V137.432ZM404.964 155V157H406.964V155H404.964ZM351.972 155H349.972V157H351.972V155ZM351.972 89.8H374.628V85.8H351.972V89.8ZM372.628 87.8V137.432H376.628V87.8H372.628ZM374.628 139.432H404.964V135.432H374.628V139.432ZM402.964 137.432V155H406.964V137.432H402.964ZM404.964 153H351.972V157H404.964V153ZM353.972 155V87.8H349.972V155H353.972Z" fill="white"/>
</svg>
