<svg width="90" height="35" viewBox="0 0 90 35" fill="none" xmlns="http://www.w3.org/2000/svg">
<path d="M33.562 4.4V17H30.646V6.74H28.126V4.4H33.562ZM46.9145 9.098C47.7185 9.098 48.4505 9.26 49.1105 9.584C49.7705 9.908 50.2925 10.37 50.6765 10.97C51.0605 11.558 51.2525 12.242 51.2525 13.022C51.2525 13.862 51.0425 14.6 50.6225 15.236C50.2025 15.872 49.6265 16.364 48.8945 16.712C48.1745 17.048 47.3705 17.216 46.4825 17.216C44.7185 17.216 43.3385 16.676 42.3425 15.596C41.3465 14.516 40.8485 12.974 40.8485 10.97C40.8485 9.542 41.1185 8.318 41.6585 7.298C42.1985 6.278 42.9485 5.504 43.9085 4.976C44.8805 4.448 46.0025 4.184 47.2745 4.184C47.9465 4.184 48.5885 4.262 49.2005 4.418C49.8245 4.562 50.3525 4.772 50.7845 5.048L49.7045 7.19C49.0805 6.77 48.2945 6.56 47.3465 6.56C46.2785 6.56 45.4325 6.872 44.8085 7.496C44.1845 8.12 43.8485 9.026 43.8005 10.214C44.5445 9.47 45.5825 9.098 46.9145 9.098ZM46.3205 15.038C46.9445 15.038 47.4485 14.87 47.8325 14.534C48.2285 14.198 48.4265 13.742 48.4265 13.166C48.4265 12.59 48.2285 12.134 47.8325 11.798C47.4485 11.45 46.9325 11.276 46.2845 11.276C45.6485 11.276 45.1265 11.456 44.7185 11.816C44.3105 12.164 44.1065 12.614 44.1065 13.166C44.1065 13.718 44.3045 14.168 44.7005 14.516C45.0965 14.864 45.6365 15.038 46.3205 15.038ZM57.1694 4.4V17H54.2534V6.74H51.7334V4.4H57.1694ZM67.9803 10.376C68.6043 10.688 69.0783 11.096 69.4023 11.6C69.7383 12.104 69.9062 12.686 69.9062 13.346C69.9062 14.126 69.6842 14.81 69.2402 15.398C68.7962 15.974 68.1723 16.424 67.3683 16.748C66.5643 17.06 65.6343 17.216 64.5783 17.216C63.5223 17.216 62.5923 17.06 61.7883 16.748C60.9963 16.424 60.3783 15.974 59.9343 15.398C59.5023 14.81 59.2863 14.126 59.2863 13.346C59.2863 12.686 59.4483 12.104 59.7723 11.6C60.1083 11.096 60.5823 10.688 61.1943 10.376C60.7263 10.088 60.3663 9.728 60.1143 9.296C59.8623 8.852 59.7363 8.348 59.7363 7.784C59.7363 7.052 59.9403 6.416 60.3483 5.876C60.7563 5.336 61.3263 4.922 62.0583 4.634C62.7903 4.334 63.6303 4.184 64.5783 4.184C65.5383 4.184 66.3843 4.334 67.1163 4.634C67.8603 4.922 68.4363 5.336 68.8443 5.876C69.2523 6.416 69.4563 7.052 69.4563 7.784C69.4563 8.348 69.3303 8.852 69.0783 9.296C68.8263 9.728 68.4603 10.088 67.9803 10.376ZM64.5783 6.326C63.9903 6.326 63.5163 6.47 63.1562 6.758C62.8083 7.034 62.6343 7.418 62.6343 7.91C62.6343 8.39 62.8083 8.768 63.1562 9.044C63.5043 9.32 63.9783 9.458 64.5783 9.458C65.1783 9.458 65.6583 9.32 66.0183 9.044C66.3783 8.768 66.5583 8.39 66.5583 7.91C66.5583 7.418 66.3783 7.034 66.0183 6.758C65.6583 6.47 65.1783 6.326 64.5783 6.326ZM64.5783 15.074C65.3103 15.074 65.8863 14.912 66.3063 14.588C66.7383 14.252 66.9543 13.808 66.9543 13.256C66.9543 12.704 66.7383 12.266 66.3063 11.942C65.8863 11.618 65.3103 11.456 64.5783 11.456C63.8583 11.456 63.2883 11.618 62.8683 11.942C62.4483 12.266 62.2383 12.704 62.2383 13.256C62.2383 13.82 62.4483 14.264 62.8683 14.588C63.2883 14.912 63.8583 15.074 64.5783 15.074ZM80.8567 12.878V13.886H84.7447V15.38H80.8567V17H77.9227V15.38H76.1767V13.886H77.9227V4.4H83.3767C85.0927 4.4 86.4307 4.76 87.3907 5.48C88.3627 6.2 88.8487 7.256 88.8487 8.648C88.8487 10.028 88.3627 11.078 87.3907 11.798C86.4307 12.518 85.0927 12.878 83.3767 12.878H80.8567ZM85.8967 8.666C85.8967 8.054 85.6747 7.586 85.2307 7.262C84.7987 6.938 84.1747 6.776 83.3587 6.776H80.8567V10.592H83.3587C84.1747 10.592 84.7987 10.43 85.2307 10.106C85.6747 9.77 85.8967 9.29 85.8967 8.666Z" fill="#0499DD"/>
<path d="M14.2268 7.48265C16.7217 7.48265 18.7441 6.76033 18.7441 5.86931C18.7441 4.9783 16.7217 4.25598 14.2268 4.25598C11.732 4.25598 9.70947 4.9783 9.70947 5.86931C9.70947 6.76033 11.732 7.48265 14.2268 7.48265Z" stroke="#0499DD" stroke-width="0.6" stroke-miterlimit="10" stroke-linecap="round" stroke-linejoin="round"/>
<path d="M9.70947 6.19208C9.70947 6.48635 9.70947 7.83381 9.70947 8.12808C9.70947 9.01896 11.7313 9.74141 14.2268 9.74141C16.7223 9.74141 18.7441 9.01896 18.7441 8.12808C18.7441 7.83381 18.7441 6.48635 18.7441 6.19208" stroke="#0499DD" stroke-width="0.6" stroke-miterlimit="10" stroke-linecap="round" stroke-linejoin="round"/>
<path d="M12.1455 11.8189C12.7683 11.9345 13.4762 12 14.2267 12C16.7222 12 18.744 11.2775 18.744 10.3866C18.744 10.0924 18.744 8.74489 18.744 8.45062" stroke="#0499DD" stroke-width="0.6" stroke-miterlimit="10" stroke-linecap="round" stroke-linejoin="round"/>
<path d="M9.70947 8.45062C9.70947 8.74489 9.70947 9.82841 9.70947 9.82841" stroke="#0499DD" stroke-width="0.6" stroke-miterlimit="10" stroke-linecap="round" stroke-linejoin="round"/>
<path d="M12.2988 14.1048C12.8835 14.2035 13.5369 14.2587 14.2268 14.2587C16.7223 14.2587 18.7441 13.5366 18.7441 12.6453C18.7441 12.3511 18.7441 11.0036 18.7441 10.7094" stroke="#0499DD" stroke-width="0.6" stroke-miterlimit="10" stroke-linecap="round" stroke-linejoin="round"/>
<path d="M12.2739 16.3593C12.8647 16.4606 13.5272 16.5174 14.2267 16.5174C16.7222 16.5174 18.744 15.7953 18.744 14.9041C18.744 14.6098 18.744 13.2624 18.744 12.9681" stroke="#0499DD" stroke-width="0.6" stroke-miterlimit="10" stroke-linecap="round" stroke-linejoin="round"/>
<path d="M7.77319 12.9679C10.268 12.9679 12.2905 12.2456 12.2905 11.3546C12.2905 10.4636 10.268 9.74127 7.77319 9.74127C5.27834 9.74127 3.25586 10.4636 3.25586 11.3546C3.25586 12.2456 5.27834 12.9679 7.77319 12.9679Z" stroke="#0499DD" stroke-width="0.6" stroke-miterlimit="10" stroke-linecap="round" stroke-linejoin="round"/>
<path d="M3.25586 11.6774C3.25586 11.9716 3.25586 13.3191 3.25586 13.6134C3.25586 14.5046 5.27769 15.2267 7.77319 15.2267C10.2687 15.2267 12.2905 14.5046 12.2905 13.6134C12.2905 13.3191 12.2905 11.9716 12.2905 11.6774" stroke="#0499DD" stroke-width="0.6" stroke-miterlimit="10" stroke-linecap="round" stroke-linejoin="round"/>
<path d="M3.25586 13.9359C3.25586 14.2302 3.25586 15.5776 3.25586 15.8719C3.25586 16.7631 5.27769 17.4852 7.77319 17.4852C10.2687 17.4852 12.2905 16.7631 12.2905 15.8719C12.2905 15.5776 12.2905 14.2302 12.2905 13.9359" stroke="#0499DD" stroke-width="0.6" stroke-miterlimit="10" stroke-linecap="round" stroke-linejoin="round"/>
<path d="M3.25586 16.1946C3.25586 16.4889 3.25586 17.8364 3.25586 18.1306C3.25586 19.0218 5.27769 19.744 7.77319 19.744C10.2687 19.744 12.2905 19.0218 12.2905 18.1306C12.2905 17.8364 12.2905 16.4889 12.2905 16.1946" stroke="#0499DD" stroke-width="0.6" stroke-miterlimit="10" stroke-linecap="round" stroke-linejoin="round"/>
<path d="M8.45 29.37C8.92333 29.4833 9.28 29.6867 9.52 29.98C9.76667 30.2667 9.89 30.6367 9.89 31.09C9.89 31.6967 9.66667 32.1667 9.22 32.5C8.78 32.8333 8.13667 33 7.29 33H4.09V26H7.1C7.86667 26 8.46333 26.1567 8.89 26.47C9.32333 26.7767 9.54 27.22 9.54 27.8C9.54 28.18 9.44333 28.5033 9.25 28.77C9.06333 29.0367 8.79667 29.2367 8.45 29.37ZM5.08 29.08H7.03C7.51667 29.08 7.88667 28.9833 8.14 28.79C8.4 28.5967 8.53 28.3133 8.53 27.94C8.53 27.5667 8.4 27.2833 8.14 27.09C7.88 26.89 7.51 26.79 7.03 26.79H5.08V29.08ZM7.27 32.21C8.34333 32.21 8.88 31.81 8.88 31.01C8.88 30.61 8.74333 30.3167 8.47 30.13C8.20333 29.9367 7.80333 29.84 7.27 29.84H5.08V32.21H7.27ZM14.2707 30.24C14.624 30.3333 14.8974 30.4833 15.0907 30.69C15.284 30.8967 15.3807 31.1533 15.3807 31.46C15.3807 31.7733 15.274 32.0533 15.0607 32.3C14.8474 32.54 14.5507 32.73 14.1707 32.87C13.7974 33.0033 13.3774 33.07 12.9107 33.07C12.5174 33.07 12.1307 33.02 11.7507 32.92C11.3774 32.8133 11.044 32.6633 10.7507 32.47L11.0407 31.74C11.294 31.9 11.584 32.0267 11.9107 32.12C12.2374 32.2067 12.5674 32.25 12.9007 32.25C13.354 32.25 13.714 32.1733 13.9807 32.02C14.254 31.86 14.3907 31.6467 14.3907 31.38C14.3907 31.1333 14.2807 30.9433 14.0607 30.81C13.8474 30.6767 13.544 30.61 13.1507 30.61H12.1807V29.92H13.0807C13.4407 29.92 13.724 29.8567 13.9307 29.73C14.1374 29.6033 14.2407 29.43 14.2407 29.21C14.2407 28.97 14.1174 28.7833 13.8707 28.65C13.6307 28.5167 13.304 28.45 12.8907 28.45C12.364 28.45 11.8074 28.5867 11.2207 28.86L10.9607 28.12C11.6074 27.7933 12.284 27.63 12.9907 27.63C13.4174 27.63 13.8007 27.69 14.1407 27.81C14.4807 27.93 14.7474 28.1 14.9407 28.32C15.134 28.54 15.2307 28.79 15.2307 29.07C15.2307 29.33 15.144 29.5633 14.9707 29.77C14.7974 29.9767 14.564 30.1333 14.2707 30.24ZM19.6502 27.65C20.1635 27.65 20.6235 27.7633 21.0302 27.99C21.4368 28.2167 21.7535 28.5333 21.9802 28.94C22.2135 29.3467 22.3302 29.8167 22.3302 30.35C22.3302 30.8833 22.2135 31.3567 21.9802 31.77C21.7535 32.1767 21.4368 32.4933 21.0302 32.72C20.6235 32.9467 20.1635 33.06 19.6502 33.06C19.2702 33.06 18.9202 32.9867 18.6002 32.84C18.2868 32.6933 18.0202 32.48 17.8002 32.2V34.94H16.8402V27.7H17.7602V28.54C17.9735 28.2467 18.2435 28.0267 18.5702 27.88C18.8968 27.7267 19.2568 27.65 19.6502 27.65ZM19.5702 32.22C19.9102 32.22 20.2135 32.1433 20.4802 31.99C20.7535 31.83 20.9668 31.61 21.1202 31.33C21.2802 31.0433 21.3602 30.7167 21.3602 30.35C21.3602 29.9833 21.2802 29.66 21.1202 29.38C20.9668 29.0933 20.7535 28.8733 20.4802 28.72C20.2135 28.5667 19.9102 28.49 19.5702 28.49C19.2368 28.49 18.9335 28.57 18.6602 28.73C18.3935 28.8833 18.1802 29.1 18.0202 29.38C17.8668 29.66 17.7902 29.9833 17.7902 30.35C17.7902 30.7167 17.8668 31.0433 18.0202 31.33C18.1735 31.61 18.3868 31.83 18.6602 31.99C18.9335 32.1433 19.2368 32.22 19.5702 32.22ZM25.9949 33.06C25.4683 33.06 24.9949 32.9433 24.5749 32.71C24.1549 32.4767 23.8249 32.1567 23.5849 31.75C23.3516 31.3367 23.2349 30.87 23.2349 30.35C23.2349 29.83 23.3516 29.3667 23.5849 28.96C23.8249 28.5467 24.1549 28.2267 24.5749 28C24.9949 27.7667 25.4683 27.65 25.9949 27.65C26.5216 27.65 26.9916 27.7667 27.4049 28C27.8249 28.2267 28.1516 28.5467 28.3849 28.96C28.6249 29.3667 28.7449 29.83 28.7449 30.35C28.7449 30.87 28.6249 31.3367 28.3849 31.75C28.1516 32.1567 27.8249 32.4767 27.4049 32.71C26.9916 32.9433 26.5216 33.06 25.9949 33.06ZM25.9949 32.22C26.3349 32.22 26.6383 32.1433 26.9049 31.99C27.1783 31.83 27.3916 31.61 27.5449 31.33C27.6983 31.0433 27.7749 30.7167 27.7749 30.35C27.7749 29.9833 27.6983 29.66 27.5449 29.38C27.3916 29.0933 27.1783 28.8733 26.9049 28.72C26.6383 28.5667 26.3349 28.49 25.9949 28.49C25.6549 28.49 25.3483 28.5667 25.0749 28.72C24.8083 28.8733 24.5949 29.0933 24.4349 29.38C24.2816 29.66 24.2049 29.9833 24.2049 30.35C24.2049 30.7167 24.2816 31.0433 24.4349 31.33C24.5949 31.61 24.8083 31.83 25.0749 31.99C25.3483 32.1433 25.6549 32.22 25.9949 32.22ZM32.4412 33.06C31.9012 33.06 31.4178 32.9433 30.9912 32.71C30.5712 32.4767 30.2412 32.1567 30.0012 31.75C29.7612 31.3367 29.6412 30.87 29.6412 30.35C29.6412 29.83 29.7612 29.3667 30.0012 28.96C30.2412 28.5467 30.5712 28.2267 30.9912 28C31.4178 27.7667 31.9012 27.65 32.4412 27.65C32.9212 27.65 33.3478 27.7467 33.7212 27.94C34.1012 28.1333 34.3945 28.4133 34.6012 28.78L33.8712 29.25C33.7045 28.9967 33.4978 28.8067 33.2512 28.68C33.0045 28.5533 32.7312 28.49 32.4312 28.49C32.0845 28.49 31.7712 28.5667 31.4912 28.72C31.2178 28.8733 31.0012 29.0933 30.8412 29.38C30.6878 29.66 30.6112 29.9833 30.6112 30.35C30.6112 30.7233 30.6878 31.0533 30.8412 31.34C31.0012 31.62 31.2178 31.8367 31.4912 31.99C31.7712 32.1433 32.0845 32.22 32.4312 32.22C32.7312 32.22 33.0045 32.1567 33.2512 32.03C33.4978 31.9033 33.7045 31.7133 33.8712 31.46L34.6012 31.92C34.3945 32.2867 34.1012 32.57 33.7212 32.77C33.3478 32.9633 32.9212 33.06 32.4412 33.06ZM40.2378 27.7V33H39.2778V28.54H36.9978L36.9378 29.72C36.9045 30.4333 36.8411 31.03 36.7478 31.51C36.6545 31.9833 36.5011 32.3633 36.2878 32.65C36.0745 32.9367 35.7778 33.08 35.3978 33.08C35.2245 33.08 35.0278 33.05 34.8078 32.99L34.8678 32.18C34.9545 32.2 35.0345 32.21 35.1078 32.21C35.3745 32.21 35.5745 32.0933 35.7078 31.86C35.8411 31.6267 35.9278 31.35 35.9678 31.03C36.0078 30.71 36.0445 30.2533 36.0778 29.66L36.1678 27.7H40.2378ZM44.4841 29.5C45.1507 29.5067 45.6607 29.66 46.0141 29.96C46.3674 30.26 46.5441 30.6833 46.5441 31.23C46.5441 31.8033 46.3507 32.2467 45.9641 32.56C45.5841 32.8667 45.0374 33.0167 44.3241 33.01L42.0941 33V27.7H43.0541V29.49L44.4841 29.5ZM47.3341 27.7H48.2941V33H47.3341V27.7ZM44.2541 32.28C44.6874 32.2867 45.0141 32.2 45.2341 32.02C45.4607 31.84 45.5741 31.5733 45.5741 31.22C45.5741 30.8733 45.4641 30.62 45.2441 30.46C45.0241 30.3 44.6941 30.2167 44.2541 30.21L43.0541 30.19V32.27L44.2541 32.28ZM50.1605 27.7H51.1205V31.56L54.3705 27.7H55.2405V33H54.2805V29.14L51.0405 33H50.1605V27.7ZM52.6405 27.01C52.1471 27.01 51.7638 26.8933 51.4905 26.66C51.2171 26.42 51.0771 26.0767 51.0705 25.63H51.7205C51.7271 25.8767 51.8105 26.0767 51.9705 26.23C52.1371 26.3767 52.3571 26.45 52.6305 26.45C52.9038 26.45 53.1238 26.3767 53.2905 26.23C53.4571 26.0767 53.5438 25.8767 53.5505 25.63H54.2205C54.2138 26.0767 54.0705 26.42 53.7905 26.66C53.5105 26.8933 53.1271 27.01 52.6405 27.01ZM62.4894 27.88C62.9827 27.88 63.4227 27.99 63.8094 28.21C64.196 28.43 64.496 28.7367 64.7094 29.13C64.9294 29.5167 65.0394 29.96 65.0394 30.46C65.0394 30.9733 64.9227 31.43 64.6894 31.83C64.4627 32.2233 64.1394 32.53 63.7194 32.75C63.306 32.97 62.8327 33.08 62.2994 33.08C61.3994 33.08 60.7027 32.7733 60.2094 32.16C59.7227 31.54 59.4794 30.67 59.4794 29.55C59.4794 28.4633 59.7027 27.6133 60.1494 27C60.596 26.38 61.2794 25.97 62.1994 25.77L64.6194 25.23L64.7594 26.11L62.5294 26.59C61.836 26.7433 61.3194 27.0033 60.9794 27.37C60.6394 27.7367 60.446 28.2633 60.3994 28.95C60.626 28.61 60.9194 28.3467 61.2794 28.16C61.6394 27.9733 62.0427 27.88 62.4894 27.88ZM62.3194 32.28C62.6594 32.28 62.9594 32.2033 63.2194 32.05C63.486 31.8967 63.6927 31.6867 63.8394 31.42C63.986 31.1467 64.0594 30.8367 64.0594 30.49C64.0594 29.9633 63.8994 29.54 63.5794 29.22C63.2594 28.9 62.8394 28.74 62.3194 28.74C61.7994 28.74 61.376 28.9 61.0494 29.22C60.7294 29.54 60.5694 29.9633 60.5694 30.49C60.5694 30.8367 60.6427 31.1467 60.7894 31.42C60.9427 31.6867 61.1527 31.8967 61.4194 32.05C61.686 32.2033 61.986 32.28 62.3194 32.28ZM66.4105 27.7H67.3705V31.56L70.6205 27.7H71.4905V33H70.5305V29.14L67.2905 33H66.4105V27.7ZM77.9038 27.7V33H76.9438V28.54H74.6638L74.6038 29.72C74.5705 30.4333 74.5072 31.03 74.4138 31.51C74.3205 31.9833 74.1672 32.3633 73.9538 32.65C73.7405 32.9367 73.4438 33.08 73.0638 33.08C72.8905 33.08 72.6938 33.05 72.4738 32.99L72.5338 32.18C72.6205 32.2 72.7005 32.21 72.7738 32.21C73.0405 32.21 73.2405 32.0933 73.3738 31.86C73.5072 31.6267 73.5938 31.35 73.6338 31.03C73.6738 30.71 73.7105 30.2533 73.7438 29.66L73.8338 27.7H77.9038ZM84.5501 30.38C84.5501 30.4533 84.5434 30.55 84.5301 30.67H80.2301C80.2901 31.1367 80.4934 31.5133 80.8401 31.8C81.1934 32.08 81.6301 32.22 82.1501 32.22C82.7834 32.22 83.2934 32.0067 83.6801 31.58L84.2101 32.2C83.9701 32.48 83.6701 32.6933 83.3101 32.84C82.9567 32.9867 82.5601 33.06 82.1201 33.06C81.5601 33.06 81.0634 32.9467 80.6301 32.72C80.1967 32.4867 79.8601 32.1633 79.6201 31.75C79.3867 31.3367 79.2701 30.87 79.2701 30.35C79.2701 29.8367 79.3834 29.3733 79.6101 28.96C79.8434 28.5467 80.1601 28.2267 80.5601 28C80.9667 27.7667 81.4234 27.65 81.9301 27.65C82.4367 27.65 82.8867 27.7667 83.2801 28C83.6801 28.2267 83.9901 28.5467 84.2101 28.96C84.4367 29.3733 84.5501 29.8467 84.5501 30.38ZM81.9301 28.46C81.4701 28.46 81.0834 28.6 80.7701 28.88C80.4634 29.16 80.2834 29.5267 80.2301 29.98H83.6301C83.5767 29.5333 83.3934 29.17 83.0801 28.89C82.7734 28.6033 82.3901 28.46 81.9301 28.46ZM89.7648 28.54H87.8248V33H86.8648V28.54H84.9248V27.7H89.7648V28.54Z" fill="#282828"/>
</svg>
