<svg width="89" height="35" viewBox="0 0 89 35" fill="none" xmlns="http://www.w3.org/2000/svg">
<path d="M33.562 4.4V17H30.646V6.74H28.126V4.4H33.562ZM52.3865 14.354H50.3345V17H47.4905V14.354H40.7045V12.392L46.6445 4.4H49.7045L44.1965 11.978H47.5805V9.62H50.3345V11.978H52.3865V14.354ZM57.6616 4.4V17H54.7456V6.74H52.2256V4.4H57.6616ZM69.2644 14.624V17H59.7424V15.11L64.6024 10.52C65.1184 10.028 65.4664 9.608 65.6464 9.26C65.8264 8.9 65.9164 8.546 65.9164 8.198C65.9164 7.694 65.7424 7.31 65.3944 7.046C65.0584 6.77 64.5604 6.632 63.9004 6.632C63.3484 6.632 62.8504 6.74 62.4064 6.956C61.9624 7.16 61.5904 7.472 61.2904 7.892L59.1664 6.524C59.6584 5.792 60.3364 5.222 61.2004 4.814C62.0644 4.394 63.0544 4.184 64.1704 4.184C65.1064 4.184 65.9224 4.34 66.6184 4.652C67.3264 4.952 67.8724 5.384 68.2564 5.948C68.6524 6.5 68.8504 7.154 68.8504 7.91C68.8504 8.594 68.7064 9.236 68.4184 9.836C68.1304 10.436 67.5724 11.12 66.7444 11.888L63.8464 14.624H69.2644ZM80.0833 12.878V13.886H83.9713V15.38H80.0833V17H77.1493V15.38H75.4033V13.886H77.1493V4.4H82.6033C84.3193 4.4 85.6573 4.76 86.6173 5.48C87.5893 6.2 88.0753 7.256 88.0753 8.648C88.0753 10.028 87.5893 11.078 86.6173 11.798C85.6573 12.518 84.3193 12.878 82.6033 12.878H80.0833ZM85.1233 8.666C85.1233 8.054 84.9013 7.586 84.4573 7.262C84.0253 6.938 83.4013 6.776 82.5853 6.776H80.0833V10.592H82.5853C83.4013 10.592 84.0253 10.43 84.4573 10.106C84.9013 9.77 85.1233 9.29 85.1233 8.666Z" fill="#0499DD"/>
<path d="M14.2268 7.48265C16.7217 7.48265 18.7441 6.76033 18.7441 5.86931C18.7441 4.9783 16.7217 4.25598 14.2268 4.25598C11.732 4.25598 9.70947 4.9783 9.70947 5.86931C9.70947 6.76033 11.732 7.48265 14.2268 7.48265Z" stroke="#0499DD" stroke-width="0.6" stroke-miterlimit="10" stroke-linecap="round" stroke-linejoin="round"/>
<path d="M9.70947 6.19208C9.70947 6.48635 9.70947 7.83381 9.70947 8.12808C9.70947 9.01896 11.7313 9.74141 14.2268 9.74141C16.7223 9.74141 18.7441 9.01896 18.7441 8.12808C18.7441 7.83381 18.7441 6.48635 18.7441 6.19208" stroke="#0499DD" stroke-width="0.6" stroke-miterlimit="10" stroke-linecap="round" stroke-linejoin="round"/>
<path d="M12.1455 11.8189C12.7683 11.9345 13.4762 12 14.2267 12C16.7222 12 18.744 11.2775 18.744 10.3866C18.744 10.0924 18.744 8.74489 18.744 8.45062" stroke="#0499DD" stroke-width="0.6" stroke-miterlimit="10" stroke-linecap="round" stroke-linejoin="round"/>
<path d="M9.70947 8.45062C9.70947 8.74489 9.70947 9.82841 9.70947 9.82841" stroke="#0499DD" stroke-width="0.6" stroke-miterlimit="10" stroke-linecap="round" stroke-linejoin="round"/>
<path d="M12.2988 14.1048C12.8835 14.2035 13.5369 14.2587 14.2268 14.2587C16.7223 14.2587 18.7441 13.5366 18.7441 12.6453C18.7441 12.3511 18.7441 11.0036 18.7441 10.7094" stroke="#0499DD" stroke-width="0.6" stroke-miterlimit="10" stroke-linecap="round" stroke-linejoin="round"/>
<path d="M12.2739 16.3593C12.8647 16.4606 13.5272 16.5174 14.2267 16.5174C16.7222 16.5174 18.744 15.7953 18.744 14.9041C18.744 14.6098 18.744 13.2624 18.744 12.9681" stroke="#0499DD" stroke-width="0.6" stroke-miterlimit="10" stroke-linecap="round" stroke-linejoin="round"/>
<path d="M7.77319 12.9679C10.268 12.9679 12.2905 12.2456 12.2905 11.3546C12.2905 10.4636 10.268 9.74127 7.77319 9.74127C5.27834 9.74127 3.25586 10.4636 3.25586 11.3546C3.25586 12.2456 5.27834 12.9679 7.77319 12.9679Z" stroke="#0499DD" stroke-width="0.6" stroke-miterlimit="10" stroke-linecap="round" stroke-linejoin="round"/>
<path d="M3.25586 11.6774C3.25586 11.9716 3.25586 13.3191 3.25586 13.6134C3.25586 14.5046 5.27769 15.2267 7.77319 15.2267C10.2687 15.2267 12.2905 14.5046 12.2905 13.6134C12.2905 13.3191 12.2905 11.9716 12.2905 11.6774" stroke="#0499DD" stroke-width="0.6" stroke-miterlimit="10" stroke-linecap="round" stroke-linejoin="round"/>
<path d="M3.25586 13.9359C3.25586 14.2302 3.25586 15.5776 3.25586 15.8719C3.25586 16.7631 5.27769 17.4852 7.77319 17.4852C10.2687 17.4852 12.2905 16.7631 12.2905 15.8719C12.2905 15.5776 12.2905 14.2302 12.2905 13.9359" stroke="#0499DD" stroke-width="0.6" stroke-miterlimit="10" stroke-linecap="round" stroke-linejoin="round"/>
<path d="M3.25586 16.1946C3.25586 16.4889 3.25586 17.8364 3.25586 18.1306C3.25586 19.0218 5.27769 19.744 7.77319 19.744C10.2687 19.744 12.2905 19.0218 12.2905 18.1306C12.2905 17.8364 12.2905 16.4889 12.2905 16.1946" stroke="#0499DD" stroke-width="0.6" stroke-miterlimit="10" stroke-linecap="round" stroke-linejoin="round"/>
<path d="M10.76 32.13V34.53H9.83V33H4.07L4.06 34.53H3.13L3.14 32.13H3.48C3.92 32.1033 4.23 31.7567 4.41 31.09C4.59 30.4167 4.7 29.47 4.74 28.25L4.81 26H9.73V32.13H10.76ZM5.62 28.34C5.58667 29.3267 5.50667 30.1433 5.38 30.79C5.26 31.4367 5.06333 31.8833 4.79 32.13H8.74V26.87H5.67L5.62 28.34ZM16.6399 30.38C16.6399 30.4533 16.6333 30.55 16.6199 30.67H12.3199C12.3799 31.1367 12.5833 31.5133 12.9299 31.8C13.2833 32.08 13.7199 32.22 14.2399 32.22C14.8733 32.22 15.3833 32.0067 15.7699 31.58L16.2999 32.2C16.0599 32.48 15.7599 32.6933 15.3999 32.84C15.0466 32.9867 14.6499 33.06 14.2099 33.06C13.6499 33.06 13.1533 32.9467 12.7199 32.72C12.2866 32.4867 11.9499 32.1633 11.7099 31.75C11.4766 31.3367 11.3599 30.87 11.3599 30.35C11.3599 29.8367 11.4733 29.3733 11.6999 28.96C11.9333 28.5467 12.2499 28.2267 12.6499 28C13.0566 27.7667 13.5133 27.65 14.0199 27.65C14.5266 27.65 14.9766 27.7667 15.3699 28C15.7699 28.2267 16.0799 28.5467 16.2999 28.96C16.5266 29.3733 16.6399 29.8467 16.6399 30.38ZM14.0199 28.46C13.5599 28.46 13.1733 28.6 12.8599 28.88C12.5533 29.16 12.3733 29.5267 12.3199 29.98H15.7199C15.6666 29.5333 15.4833 29.17 15.1699 28.89C14.8633 28.6033 14.4799 28.46 14.0199 28.46ZM21.8546 28.54H19.9146V33H18.9546V28.54H17.0146V27.7H21.8546V28.54ZM24.9119 33.06C24.3719 33.06 23.8885 32.9433 23.4619 32.71C23.0419 32.4767 22.7119 32.1567 22.4719 31.75C22.2319 31.3367 22.1119 30.87 22.1119 30.35C22.1119 29.83 22.2319 29.3667 22.4719 28.96C22.7119 28.5467 23.0419 28.2267 23.4619 28C23.8885 27.7667 24.3719 27.65 24.9119 27.65C25.3919 27.65 25.8185 27.7467 26.1919 27.94C26.5719 28.1333 26.8652 28.4133 27.0719 28.78L26.3419 29.25C26.1752 28.9967 25.9685 28.8067 25.7219 28.68C25.4752 28.5533 25.2019 28.49 24.9019 28.49C24.5552 28.49 24.2419 28.5667 23.9619 28.72C23.6885 28.8733 23.4719 29.0933 23.3119 29.38C23.1585 29.66 23.0819 29.9833 23.0819 30.35C23.0819 30.7233 23.1585 31.0533 23.3119 31.34C23.4719 31.62 23.6885 31.8367 23.9619 31.99C24.2419 32.1433 24.5552 32.22 24.9019 32.22C25.2019 32.22 25.4752 32.1567 25.7219 32.03C25.9685 31.9033 26.1752 31.7133 26.3419 31.46L27.0719 31.92C26.8652 32.2867 26.5719 32.57 26.1919 32.77C25.8185 32.9633 25.3919 33.06 24.9119 33.06ZM30.3748 30.76H29.2748V33H28.3148V27.7H29.2748V29.94H30.3948L32.1148 27.7H33.1448L31.1348 30.25L33.2848 33H32.1548L30.3748 30.76ZM34.2913 27.7H35.2513V31.56L38.5013 27.7H39.3713V33H38.4113V29.14L35.1713 33H34.2913V27.7ZM41.2347 27.7H42.1947V31.56L45.4447 27.7H46.3147V33H45.3547V29.14L42.1147 33H41.2347V27.7ZM43.7147 27.01C43.2214 27.01 42.838 26.8933 42.5647 26.66C42.2914 26.42 42.1514 26.0767 42.1447 25.63H42.7947C42.8014 25.8767 42.8847 26.0767 43.0447 26.23C43.2114 26.3767 43.4314 26.45 43.7047 26.45C43.978 26.45 44.198 26.3767 44.3647 26.23C44.5314 26.0767 44.618 25.8767 44.6247 25.63H45.2947C45.288 26.0767 45.1447 26.42 44.8647 26.66C44.5847 26.8933 44.2014 27.01 43.7147 27.01ZM53.5636 27.88C54.0569 27.88 54.4969 27.99 54.8836 28.21C55.2703 28.43 55.5703 28.7367 55.7836 29.13C56.0036 29.5167 56.1136 29.96 56.1136 30.46C56.1136 30.9733 55.9969 31.43 55.7636 31.83C55.5369 32.2233 55.2136 32.53 54.7936 32.75C54.3803 32.97 53.9069 33.08 53.3736 33.08C52.4736 33.08 51.7769 32.7733 51.2836 32.16C50.7969 31.54 50.5536 30.67 50.5536 29.55C50.5536 28.4633 50.7769 27.6133 51.2236 27C51.6703 26.38 52.3536 25.97 53.2736 25.77L55.6936 25.23L55.8336 26.11L53.6036 26.59C52.9103 26.7433 52.3936 27.0033 52.0536 27.37C51.7136 27.7367 51.5203 28.2633 51.4736 28.95C51.7003 28.61 51.9936 28.3467 52.3536 28.16C52.7136 27.9733 53.1169 27.88 53.5636 27.88ZM53.3936 32.28C53.7336 32.28 54.0336 32.2033 54.2936 32.05C54.5603 31.8967 54.7669 31.6867 54.9136 31.42C55.0603 31.1467 55.1336 30.8367 55.1336 30.49C55.1336 29.9633 54.9736 29.54 54.6536 29.22C54.3336 28.9 53.9136 28.74 53.3936 28.74C52.8736 28.74 52.4503 28.9 52.1236 29.22C51.8036 29.54 51.6436 29.9633 51.6436 30.49C51.6436 30.8367 51.7169 31.1467 51.8636 31.42C52.0169 31.6867 52.2269 31.8967 52.4936 32.05C52.7603 32.2033 53.0603 32.28 53.3936 32.28ZM57.4847 27.7H58.4447V31.56L61.6947 27.7H62.5647V33H61.6047V29.14L58.3647 33H57.4847V27.7ZM68.978 27.7V33H68.018V28.54H65.738L65.678 29.72C65.6447 30.4333 65.5814 31.03 65.488 31.51C65.3947 31.9833 65.2414 32.3633 65.028 32.65C64.8147 32.9367 64.518 33.08 64.138 33.08C63.9647 33.08 63.768 33.05 63.548 32.99L63.608 32.18C63.6947 32.2 63.7747 32.21 63.848 32.21C64.1147 32.21 64.3147 32.0933 64.448 31.86C64.5814 31.6267 64.668 31.35 64.708 31.03C64.748 30.71 64.7847 30.2533 64.818 29.66L64.908 27.7H68.978ZM75.6243 30.38C75.6243 30.4533 75.6176 30.55 75.6043 30.67H71.3043C71.3643 31.1367 71.5676 31.5133 71.9143 31.8C72.2676 32.08 72.7043 32.22 73.2243 32.22C73.8576 32.22 74.3676 32.0067 74.7543 31.58L75.2843 32.2C75.0443 32.48 74.7443 32.6933 74.3843 32.84C74.031 32.9867 73.6343 33.06 73.1943 33.06C72.6343 33.06 72.1376 32.9467 71.7043 32.72C71.271 32.4867 70.9343 32.1633 70.6943 31.75C70.461 31.3367 70.3443 30.87 70.3443 30.35C70.3443 29.8367 70.4576 29.3733 70.6843 28.96C70.9176 28.5467 71.2343 28.2267 71.6343 28C72.041 27.7667 72.4976 27.65 73.0043 27.65C73.511 27.65 73.961 27.7667 74.3543 28C74.7543 28.2267 75.0643 28.5467 75.2843 28.96C75.511 29.3733 75.6243 29.8467 75.6243 30.38ZM73.0043 28.46C72.5443 28.46 72.1576 28.6 71.8443 28.88C71.5376 29.16 71.3576 29.5267 71.3043 29.98H74.7043C74.651 29.5333 74.4676 29.17 74.1543 28.89C73.8476 28.6033 73.4643 28.46 73.0043 28.46ZM80.839 28.54H78.899V33H77.939V28.54H75.999V27.7H80.839V28.54Z" fill="#282828"/>
</svg>
