<svg width="97" height="22" viewBox="0 0 97 22" fill="none" xmlns="http://www.w3.org/2000/svg">
<path d="M31.116 14.624V17H21.594V15.11L26.454 10.52C26.97 10.028 27.318 9.608 27.498 9.26C27.678 8.9 27.768 8.546 27.768 8.198C27.768 7.694 27.594 7.31 27.246 7.046C26.91 6.77 26.412 6.632 25.752 6.632C25.2 6.632 24.702 6.74 24.258 6.956C23.814 7.16 23.442 7.472 23.142 7.892L21.018 6.524C21.51 5.792 22.188 5.222 23.052 4.814C23.916 4.394 24.906 4.184 26.022 4.184C26.958 4.184 27.774 4.34 28.47 4.652C29.178 4.952 29.724 5.384 30.108 5.948C30.504 6.5 30.702 7.154 30.702 7.91C30.702 8.594 30.558 9.236 30.27 9.836C29.982 10.436 29.424 11.12 28.596 11.888L25.698 14.624H31.116ZM34.169 13.652C34.673 13.652 35.087 13.814 35.411 14.138C35.735 14.45 35.897 14.864 35.897 15.38C35.897 15.62 35.867 15.86 35.807 16.1C35.747 16.34 35.615 16.7 35.411 17.18L34.385 19.772H32.603L33.395 16.91C33.095 16.79 32.855 16.598 32.675 16.334C32.507 16.058 32.423 15.74 32.423 15.38C32.423 14.864 32.585 14.45 32.909 14.138C33.245 13.814 33.665 13.652 34.169 13.652ZM41.5259 9.134C43.3019 9.134 44.6099 9.488 45.4499 10.196C46.3019 10.904 46.7279 11.852 46.7279 13.04C46.7279 13.808 46.5359 14.51 46.1519 15.146C45.7679 15.77 45.1799 16.274 44.3879 16.658C43.6079 17.03 42.6419 17.216 41.4899 17.216C40.6019 17.216 39.7259 17.102 38.8619 16.874C38.0099 16.634 37.2839 16.298 36.6839 15.866L37.8359 13.634C38.3159 13.994 38.8679 14.276 39.4919 14.48C40.1159 14.672 40.7579 14.768 41.4179 14.768C42.1499 14.768 42.7259 14.624 43.1459 14.336C43.5659 14.048 43.7759 13.646 43.7759 13.13C43.7759 12.59 43.5539 12.182 43.1099 11.906C42.6779 11.63 41.9219 11.492 40.8419 11.492H37.6199L38.2679 4.4H45.9539V6.74H40.6979L40.4999 9.134H41.5259ZM62.3686 7.316V17H59.5606V13.4C58.7446 13.808 57.8446 14.012 56.8606 14.012C55.5526 14.012 54.5626 13.718 53.8906 13.13C53.2306 12.53 52.9006 11.606 52.9006 10.358V7.316H55.7086V10.178C55.7086 10.766 55.8586 11.192 56.1586 11.456C56.4706 11.72 56.9146 11.852 57.4906 11.852C58.2226 11.852 58.9126 11.696 59.5606 11.384V7.316H62.3686ZM68.8268 7.172C70.3268 7.172 71.4788 7.532 72.2828 8.252C73.0868 8.96 73.4888 10.034 73.4888 11.474V17H70.8608V15.794C70.3328 16.694 69.3488 17.144 67.9088 17.144C67.1648 17.144 66.5168 17.018 65.9648 16.766C65.4248 16.514 65.0108 16.166 64.7228 15.722C64.4348 15.278 64.2908 14.774 64.2908 14.21C64.2908 13.31 64.6268 12.602 65.2988 12.086C65.9828 11.57 67.0328 11.312 68.4488 11.312H70.6808C70.6808 10.7 70.4948 10.232 70.1228 9.908C69.7508 9.572 69.1928 9.404 68.4488 9.404C67.9328 9.404 67.4228 9.488 66.9188 9.656C66.4268 9.812 66.0068 10.028 65.6588 10.304L64.6508 8.342C65.1788 7.97 65.8088 7.682 66.5408 7.478C67.2848 7.274 68.0468 7.172 68.8268 7.172ZM68.6108 15.254C69.0908 15.254 69.5168 15.146 69.8888 14.93C70.2608 14.702 70.5248 14.372 70.6808 13.94V12.95H68.7548C67.6028 12.95 67.0268 13.328 67.0268 14.084C67.0268 14.444 67.1648 14.732 67.4408 14.948C67.7288 15.152 68.1188 15.254 68.6108 15.254ZM80.5361 17.144C79.5041 17.144 78.5741 16.934 77.7461 16.514C76.9301 16.082 76.2881 15.488 75.8201 14.732C75.3641 13.976 75.1361 13.118 75.1361 12.158C75.1361 11.198 75.3641 10.34 75.8201 9.584C76.2881 8.828 76.9301 8.24 77.7461 7.82C78.5741 7.388 79.5041 7.172 80.5361 7.172C81.5561 7.172 82.4441 7.388 83.2001 7.82C83.9681 8.24 84.5261 8.846 84.8741 9.638L82.6961 10.808C82.1921 9.92 81.4661 9.476 80.5181 9.476C79.7861 9.476 79.1801 9.716 78.7001 10.196C78.2201 10.676 77.9801 11.33 77.9801 12.158C77.9801 12.986 78.2201 13.64 78.7001 14.12C79.1801 14.6 79.7861 14.84 80.5181 14.84C81.4781 14.84 82.2041 14.396 82.6961 13.508L84.8741 14.696C84.5261 15.464 83.9681 16.064 83.2001 16.496C82.4441 16.928 81.5561 17.144 80.5361 17.144ZM90.3425 7.172C91.8425 7.172 92.9945 7.532 93.7985 8.252C94.6025 8.96 95.0045 10.034 95.0045 11.474V17H92.3765V15.794C91.8485 16.694 90.8645 17.144 89.4245 17.144C88.6805 17.144 88.0325 17.018 87.4805 16.766C86.9405 16.514 86.5265 16.166 86.2385 15.722C85.9505 15.278 85.8065 14.774 85.8065 14.21C85.8065 13.31 86.1425 12.602 86.8145 12.086C87.4985 11.57 88.5485 11.312 89.9645 11.312H92.1965C92.1965 10.7 92.0105 10.232 91.6385 9.908C91.2665 9.572 90.7085 9.404 89.9645 9.404C89.4485 9.404 88.9385 9.488 88.4345 9.656C87.9425 9.812 87.5225 10.028 87.1745 10.304L86.1665 8.342C86.6945 7.97 87.3245 7.682 88.0565 7.478C88.8005 7.274 89.5625 7.172 90.3425 7.172ZM90.1265 15.254C90.6065 15.254 91.0325 15.146 91.4045 14.93C91.7765 14.702 92.0405 14.372 92.1965 13.94V12.95H90.2705C89.1185 12.95 88.5425 13.328 88.5425 14.084C88.5425 14.444 88.6805 14.732 88.9565 14.948C89.2445 15.152 89.6345 15.254 90.1265 15.254Z" fill="#0499DD"/>
<path d="M7.5 18.5313C6.10935 18.5313 4.74993 18.1189 3.59365 17.3463C2.43737 16.5737 1.53615 15.4755 1.00398 14.1907C0.471797 12.906 0.332554 11.4922 0.603857 10.1283C0.875159 8.76435 1.54482 7.5115 2.52816 6.52816C3.5115 5.54482 4.76435 4.87516 6.12827 4.60386C7.4922 4.33255 8.90595 4.4718 10.1907 5.00398C11.4755 5.53615 12.5737 6.43737 13.3463 7.59365C14.1189 8.74993 14.5313 10.1094 14.5313 11.5C14.5313 13.3648 13.7905 15.1532 12.4718 16.4718C11.1532 17.7905 9.36481 18.5313 7.5 18.5313ZM7.5 5.40625C6.29477 5.40625 5.11661 5.76365 4.1145 6.43323C3.11238 7.10282 2.33133 8.05454 1.87011 9.16803C1.40889 10.2815 1.28821 11.5068 1.52334 12.6888C1.75847 13.8709 2.33884 14.9567 3.19107 15.8089C4.0433 16.6612 5.1291 17.2415 6.31117 17.4767C7.49324 17.7118 8.71849 17.5911 9.83198 17.1299C10.9455 16.6687 11.8972 15.8876 12.5668 14.8855C13.2364 13.8834 13.5938 12.7052 13.5938 11.5C13.5938 9.88384 12.9517 8.33387 11.8089 7.19107C10.6661 6.04827 9.11617 5.40625 7.5 5.40625Z" fill="#0499DD"/>
<path d="M9.48751 14.1531L7.1672 11.8328C7.12375 11.789 7.08938 11.7371 7.06605 11.68C7.04273 11.6228 7.0309 11.5617 7.03126 11.5V7.75H7.96876V11.3078L10.1531 13.4875L9.48751 14.1531Z" fill="#0499DD"/>
</svg>
